<?xml version="1.0" encoding="UTF-8"?><svg id="a" xmlns="http://www.w3.org/2000/svg" viewBox="0 0 1000 1000"><defs><style>.b{fill:#fff;}</style></defs><path class="b" d="m663.14,329.89s-3.43,33.34-24.18,54.11c-15.84,15.84-32.5,17.08-54.32,20.33-12.71,1.9-40.07,5.09-46.96-1.07-3.2-2.85-4.05-28.33-4.34-37.26-.28-9.34-1.83-22.29-3.8-24.28-1.01,4.13-3.36,15.56-4.17,18.36s-4.47,16.08-5.13,18.38c-13.42-2.41-27.17-2.41-40.6,0-.62-2.25-4.28-15.49-5.09-18.29s-3.16-14.23-4.17-18.36c-1.96,1.96-3.52,14.91-3.8,24.28-.28,9-1.13,34.42-4.34,37.26-6.89,6.15-34.24,2.97-46.95,1.07-21.8-3.33-38.46-4.57-54.25-20.41-20.82-20.78-24.28-54.11-24.28-54.11H10.25s93.79,30.68,131.57,92.54c22.34,36.58,19.08,78.91,13.38,100.82,84.4-4.48,153.83-4.48,223.37,20.57,93.4,33.63,112.25,102.79,121.42,126.28,9.13-23.49,28-92.65,121.42-126.28,69.54-25.04,138.96-25.08,223.37-20.57-5.68-21.91-8.94-64.25,13.4-100.82,37.7-61.86,131.56-92.54,131.56-92.54h-326.6Z"/></svg>